#!OML:ASF F:\VICON\USERDATA\INSTALL\rory3\rory3.ASF
:FULLY-SPECIFIED
:DEGREES
337
root -7.29699 17.7914 9.98422 -74.9673 -82.2505 73.5553
lowerback 10.7164 -0.159702 -7.37848
upperback 1.96393 -1.13704 -0.3066
thorax -3.81845 -0.512101 3.99492
lowerneck -19.0071 -6.36275 -12.5176
upperneck 26.9706 -8.6131 10.0261
head 13.2405 -3.96614 4.51265
rclavicle 2.00276e-014 4.37326e-015
rhumerus -36.9273 -19.9043 -75.1501
rradius 26.0637
rwrist 10.7676
rhand -15.133 7.83146
rfingers 7.12502
rthumb 11.0365 -21.8584
lclavicle 2.00276e-014 4.37326e-015
lhumerus -25.109 -2.59258 82.8917
lradius 34.6653
lwrist -2.12583
lhand -15.0067 26.3141
lfingers 7.12502
lthumb 11.1583 55.9974
rfemur -28.1357 -9.09526 14.8604
rtibia 52.1886
rfoot -9.43954 -7.46683
rtoes 9.39428
lfemur 9.80244 -0.175672 -31.0494
ltibia 5.46959
lfoot -6.22953 -3.97654
ltoes -8.74197
338
root -7.41463 17.7942 9.99242 -74.1819 -82.2307 73.0198
lowerback 10.6302 -0.257322 -7.42385
upperback 1.91968 -1.26297 -0.283304
thorax -3.8001 -0.572419 4.06034
lowerneck -19.1599 -6.36615 -12.4878
upperneck 26.9415 -8.60913 10.052
head 13.2598 -3.95165 4.51596
rclavicle -1.80894e-014 -1.70955e-014
rhumerus -37.0228 -19.9094 -75.1815
rradius 26.0083
rwrist 10.2823
rhand -15.1735 7.71411
rfingers 7.12502
rthumb 10.9974 -21.9778
lclavicle -1.80894e-014 -1.70955e-014
lhumerus -24.7362 -2.68277 82.8226
lradius 34.9939
lwrist -2.09586
lhand -15.4484 26.5941
lfingers 7.12502
lthumb 10.7323 56.3
rfemur -28.1852 -9.06257 15.0976
rtibia 49.3171
rfoot -9.48494 -8.38937
rtoes 10.2889
lfemur 10.2646 -0.322869 -31.0798
ltibia 4.85324
lfoot -6.11162 -3.72819
ltoes -9.59353
339
root -7.53412 17.8008 10.0006 -72.7816 -83.2514 71.3675
lowerback 11.01 -0.335926 -6.41302
upperback 1.98854 -1.26766 -0.037819
thorax -3.95481 -0.581528 3.75697
lowerneck -19.1724 -6.3195 -12.2457
upperneck 26.8928 -8.59506 9.98786
head 13.2231 -3.92775 4.44948
rclavicle 1.53064e-014 -1.47101e-014
rhumerus -37.2064 -20.0004 -75.1875
rradius 26.0033
rwrist 10.207
rhand -15.1829 7.6129
rfingers 7.12502
rthumb 10.9883 -22.0795
lclavicle 1.53064e-014 -1.47101e-014
lhumerus -24.4755 -2.70039 82.6316
lradius 35.3522
lwrist -2.41668
lhand -15.4975 26.7283
lfingers 7.12502
lthumb 10.6849 56.4366
rfemur -27.5601 -8.71168 16.4616
rtibia 46.3066
rfoot -9.18433 -9.39292
rtoes 9.60034
lfemur 11.5456 -0.205238 -29.9611
ltibia 3.75303
lfoot -5.78856 -3.60002
ltoes -9.8987
340
root -7.65603 17.8059 10.0029 -72.5562 -83.8872 71.1424
lowerback 11.1193 -0.383347 -5.94525
upperback 1.99537 -1.27457 0.126137
thorax -4.01413 -0.587611 3.66865
lowerneck -19.1907 -6.24584 -12.0497
upperneck 26.8428 -8.52325 9.92219
head 13.1816 -3.88314 4.40112
rclavicle 2.6339e-015 -1.43125e-014
rhumerus -37.4016 -20.2557 -75.0582
rradius 25.9689
rwrist 10.5388
rhand -15.0775 7.51773
rfingers 7.12502
rthumb 11.09 -22.1693
lclavicle 2.6339e-015 -1.43125e-014
lhumerus -24.3012 -2.825 82.4643
lradius 35.8128
lwrist -2.45275
lhand -15.366 25.9037
lfingers 7.12502
lthumb 10.8117 55.6054
rfemur -27.3138 -8.66522 17.5194
rtibia 43.2986
rfoot -8.15144 -10.1174
rtoes 6.23895
lfemur 13.8979 -0.00947347 -29.331
ltibia -3.18055e-015
lfoot -4.18956 -3.85264
ltoes -10.2987
341
root -7.78143 17.816 10.0059 -72.6399 -84.0264 71.4496
lowerback 10.9822 -0.376186 -5.9298
upperback 1.95576 -1.24914 0.203382
thorax -3.9809 -0.57396 3.73494
lowerneck -19.2213 -6.282 -12.23
upperneck 26.8005 -8.55865 10.0878
head 13.1947 -3.8947 4.49065
rclavicle 2.5345e-015 -4.37326e-015
rhumerus -37.6103 -20.4783 -74.8597
rradius 25.9144
rwrist 10.2988
rhand -14.9955 7.71047
rfingers 7.12502
rthumb 11.1691 -21.9723
lclavicle 2.5345e-015 -4.37326e-015
lhumerus -24.062 -3.25902 82.602
lradius 36.222
lwrist -1.72347
lhand -16.4742 25.7216
lfingers 7.12502
lthumb 9.74269 55.4763
rfemur -27.3644 -8.87244 18.1082
rtibia 40.3663
rfoot -6.69324 -10.5242
rtoes 2.61133
lfemur 14.1034 -0.00926707 -29.188
ltibia 3.02153e-014
lfoot -4.37095 -3.77393
ltoes -11.3417
342
root -7.90756 17.8359 10.0097 -72.4927 -84.0869 71.4886
lowerback 10.8973 -0.369251 -5.91842
upperback 1.92577 -1.2302 0.246155
thorax -3.96657 -0.563584 3.76931
lowerneck -19.2567 -6.32598 -12.4071
upperneck 26.7321 -8.60545 10.2648
head 13.2004 -3.90873 4.58136
rclavicle -8.34896e-015 1.19271e-015
rhumerus -37.722 -20.567 -74.8023
rradius 25.7494
rwrist 9.66545
rhand -15.3272 8.06659
rfingers 7.12502
rthumb 10.8491 -21.6332
lclavicle -8.34896e-015 1.19271e-015
lhumerus -23.8049 -3.58487 82.7544
lradius 36.612
lwrist -1.12744
lhand -16.9365 26.3705
lfingers 7.12502
lthumb 9.29661 56.1455
rfemur -27.2952 -8.42152 18.2548
rtibia 37.6031
rfoot -5.889 -10.5972
rtoes 6.80085
lfemur 14.352 -0.0522728 -29.1215
ltibia -2.06736e-014
lfoot -4.5119 -3.72772
ltoes -12.3271
343
root -8.03576 17.8564 10.01 -72.3612 -84.1602 71.5745
lowerback 10.7525 -0.428358 -5.9483
upperback 1.89642 -1.29959 0.284665
thorax -3.9079 -0.597814 3.83304
lowerneck -19.3078 -6.31003 -12.3974
upperneck 26.6567 -8.58106 10.3079
head 13.1784 -3.88841 4.59876
rclavicle -6.75868e-015 -1.86858e-014
rhumerus -37.8685 -20.9536 -74.6708
rradius 25.6797
rwrist 9.90434
rhand -15.458 8.15105
rfingers 7.12502
rthumb 10.723 -21.5553
lclavicle -6.75868e-015 -1.86858e-014
lhumerus -23.6023 -3.72384 82.7103
lradius 37.0112
lwrist -1.0002
lhand -16.6145 27.0669
lfingers 7.12502
lthumb 9.60735 56.8278
rfemur -27.2117 -7.76532 18.2899
rtibia 34.9184
rfoot -5.27111 -10.5996
rtoes 13.0877
lfemur 14.5715 -0.0923042 -29.0265
ltibia -1.90833e-014
lfoot -4.59217 -3.72046
ltoes -12.4151
